<?xml version="1.0" encoding="utf-8"?>
<!-- Generator: Adobe Illustrator 21.1.0, SVG Export Plug-In . SVG Version: 6.00 Build 0)  -->
<svg version="1.1" xmlns="http://www.w3.org/2000/svg" xmlns:xlink="http://www.w3.org/1999/xlink" x="0px" y="0px"
	 viewBox="0 0 243.2 126.7" style="enable-background:new 0 0 243.2 126.7;" xml:space="preserve">
<style type="text/css">
	.st0{fill:#B68B70;}
	.st1{display:none;}
	.st2{display:inline;fill:#B68B70;}
	.st3{enable-background:new    ;}
</style>
<g id="Layer_2">
</g>
<g id="Layer_1">
	<g>
		<path id="XMLID_28_" class="st0" d="M16.9,67.2V16.8h14.4c5.2,0,9.8,2.7,11.5,7.4l16.3,43h18.8L59.1,17.8
			C58.3,14,52.3,0.2,35.9,0.2H0v67.1L16.9,67.2L16.9,67.2z"/>
		<path id="XMLID_27_" class="st0" d="M226.3,0.1v50.4h-14.4c-5.5,0-9.7-3.3-11.5-7.4L184.1,0.2h-18.8l18.8,49.5
			c2.1,6.6,8.1,17.6,23.2,17.6h35.9V0.1H226.3z"/>
		<g class="st1">
			<polygon id="XMLID_26_" class="st2" points="111.3,41.8 111.3,60.5 94.3,67.2 94.3,48.7 			"/>
			<path id="XMLID_25_" class="st2" d="M150.9,31.5c0,0-33-29.2-33.4-29.6c-3.4-1.9-7.3-2.4-11.2-0.2L93.8,7.8c0,0,6.5,0.9,13.6,7.4
				c0,0,31.4,27.8,32.1,28.5c3.3,3,8,3.7,11.3,2.1l13.7-6.8C164.5,38.9,157.9,37.8,150.9,31.5"/>
		</g>
	</g>
	<g class="st3">
		<path class="st0" d="M20,115.5c0,1.6-0.2,3-0.5,4.4c-0.3,1.3-0.9,2.5-1.8,3.5c-0.8,1-2,1.8-3.4,2.4s-3.2,0.9-5.4,0.9
			c-2,0-3.8-0.3-5.3-0.9S1,124.6,0.2,124l2.1-4.6c0.8,0.5,1.7,1,2.8,1.5s2.3,0.7,3.4,0.7c2,0,3.4-0.5,4.3-1.5c0.9-1,1.3-2.7,1.3-5.1
			V94h5.8L20,115.5L20,115.5z"/>
		<path class="st0" d="M45.7,126.7c-2.2,0-4-0.3-5.6-0.9s-2.9-1.5-3.9-2.6s-1.8-2.5-2.3-4s-0.7-3.2-0.7-5.1V94.2H39v19.4
			c0,1.4,0.2,2.7,0.5,3.7s0.8,1.9,1.4,2.5s1.3,1.1,2.1,1.4s1.7,0.5,2.7,0.5s1.9-0.2,2.8-0.5c0.8-0.3,1.5-0.8,2.1-1.4
			s1.1-1.5,1.4-2.5s0.5-2.3,0.5-3.7V94.2h5.8V114c0,1.8-0.3,3.5-0.8,5.1c-0.5,1.5-1.3,2.9-2.3,4s-2.3,2-3.9,2.6
			C49.7,126.4,47.9,126.7,45.7,126.7z"/>
		<path class="st0" d="M90.8,126c-0.8-1.2-1.7-2.5-2.8-3.9c-1-1.3-2.1-2.7-3.3-3.9c-1.1-1.3-2.3-2.5-3.6-3.6
			c-1.2-1.1-2.4-2.1-3.6-2.9V126h-5.8V94.1h5.8v13.2c1-1,2.1-2.1,3.2-3.2c1.1-1.2,2.2-2.3,3.3-3.5c1.1-1.2,2.1-2.3,3.1-3.4
			s1.9-2.1,2.7-3h6.9c-1,1.2-2.1,2.4-3.2,3.6c-1.1,1.3-2.3,2.5-3.5,3.8s-2.4,2.5-3.6,3.8s-2.4,2.5-3.6,3.6c1.3,1,2.6,2.1,3.9,3.4
			s2.6,2.7,3.9,4.2s2.5,3,3.7,4.6s2.3,3.2,3.2,4.8H90.8z"/>
		<path class="st0" d="M107.6,126V94.1h20.5V99h-14.7v7.9h13.1v4.8h-13.1v9.3h15.8v4.9L107.6,126L107.6,126L107.6,126z"/>
		<path class="st0" d="M150.2,126.4c-1.7,0-3.4-0.1-5.1-0.2c-1.7-0.1-3.2-0.3-4.5-0.7v-31c0.7-0.1,1.4-0.2,2.2-0.3
			c0.8-0.1,1.5-0.2,2.3-0.3c0.8-0.1,1.6-0.1,2.4-0.1s1.5,0,2.2,0c1.9,0,3.7,0.1,5.4,0.4s3.1,0.8,4.3,1.4c1.2,0.7,2.2,1.6,2.8,2.7
			c0.7,1.1,1,2.5,1,4.1c0,1.5-0.4,2.8-1.1,3.9c-0.7,1.1-1.7,1.9-3,2.6c1.9,0.6,3.4,1.6,4.3,2.9c0.9,1.3,1.4,2.9,1.4,4.8
			c0,3.3-1.2,5.7-3.6,7.4C158.8,125.6,155.1,126.4,150.2,126.4z M146.3,107.1h4.1c2.2,0,3.9-0.3,5.2-0.9s1.9-1.8,1.9-3.4
			c0-1.5-0.7-2.6-2-3.3c-1.3-0.6-3-1-5.1-1c-0.9,0-1.7,0-2.4,0s-1.3,0.1-1.8,0.1v8.5C146.2,107.1,146.3,107.1,146.3,107.1z
			 M146.3,111.7v9.7c0.6,0.1,1.3,0.1,2.1,0.1s1.4,0,2,0c1.2,0,2.3-0.1,3.3-0.2c1-0.2,1.9-0.4,2.7-0.8s1.3-0.9,1.8-1.5
			c0.4-0.6,0.7-1.5,0.7-2.5c0-1.8-0.7-3.1-2-3.8c-1.3-0.7-3.1-1.1-5.5-1.1L146.3,111.7L146.3,111.7z"/>
		<path class="st0" d="M206.4,110c0,2.7-0.4,5.1-1.2,7.2s-1.9,3.8-3.3,5.2c-1.4,1.4-3,2.4-4.9,3.2c-1.9,0.7-3.9,1.1-6,1.1
			s-4.1-0.4-6-1.1s-3.5-1.8-4.9-3.2s-2.5-3.1-3.3-5.2s-1.2-4.5-1.2-7.2s0.4-5.1,1.2-7.2s2-3.8,3.4-5.2c1.4-1.4,3.1-2.5,4.9-3.2
			c1.9-0.7,3.8-1.1,5.9-1.1s4.1,0.4,5.9,1.1c1.9,0.7,3.5,1.8,4.9,3.2c1.4,1.4,2.5,3.2,3.3,5.2C206,104.9,206.4,107.3,206.4,110z
			 M181.5,110c0,1.7,0.2,3.3,0.6,4.8c0.4,1.4,1,2.6,1.9,3.6c0.8,1,1.8,1.8,3,2.3s2.5,0.8,4,0.8c1.4,0,2.7-0.3,3.9-0.8
			c1.2-0.6,2.2-1.3,3-2.3s1.4-2.2,1.9-3.6s0.6-3,0.6-4.8s-0.2-3.3-0.6-4.8c-0.4-1.4-1.1-2.6-1.9-3.6c-0.8-1-1.8-1.8-3-2.3
			c-1.2-0.6-2.5-0.8-3.9-0.8c-1.5,0-2.8,0.3-4,0.8c-1.2,0.6-2.2,1.3-3,2.3s-1.4,2.2-1.9,3.6C181.7,106.7,181.5,108.3,181.5,110z"/>
		<path class="st0" d="M236.5,126c-0.9-1.7-2-3.5-3.4-5.5s-2.8-4-4.2-5.8c-0.6,0.7-1.3,1.6-2,2.6s-1.4,2.1-2.1,3.1s-1.4,2.1-2,3.1
			s-1.1,1.8-1.5,2.6h-6.7c1.4-2.5,3-5.2,4.9-7.9c1.8-2.7,3.9-5.5,6-8.4l-10.4-15.6h6.9l7,10.5l7-10.5h6.6l-10.3,15.4
			c2.4,3.1,4.5,6.1,6.3,8.8c1.8,2.8,3.4,5.3,4.6,7.6L236.5,126L236.5,126z"/>
	</g>
	<g id="play">
		<path id="Polygon" class="st0" d="M159.9,36.4L98.8,67c-2,1-4.3-0.5-4.3-2.7V3.2c0-2.2,2.3-3.7,4.3-2.7l61.1,30.5
			C162.1,32.2,162.1,35.3,159.9,36.4z"/>
	</g>
</g>
</svg>
